<svg width="50" height="50" viewBox="0 0 50 50" fill="none" xmlns="http://www.w3.org/2000/svg">
<path d="M11.3889 5.94445C8.94444 7.22223 7.27778 8.88889 6.05556 11.2222C5.11111 13.0556 5 14.5556 5 25C5 37.5 5.16667 38.5 8 41.5556C10.8333 44.7222 12.3333 45 25 45C37.6667 45 39.1667 44.7222 42 41.5556C44.8333 38.5 45 37.5 45 25C45 14.5556 44.8889 13.0556 43.9444 11.2222C42.7222 8.83334 41 7.16667 38.5 5.88889C35.8889 4.61111 13.8889 4.61111 11.3889 5.94445ZM37.7778 13.3333C37.7778 14.0556 37.3889 14.4444 36.6667 14.4444C35.9444 14.4444 35.5556 14.0556 35.5556 13.3333C35.5556 12.6111 35.9444 12.2222 36.6667 12.2222C37.3889 12.2222 37.7778 12.6111 37.7778 13.3333ZM30.3889 17C33.3889 19.2222 34.1667 20.8889 34.1667 24.9444C34.1667 28.1667 33.9444 29 32.6667 30.6667C30.5556 33.4444 27.7778 34.6111 24.0556 34.3333C20.8889 34.0556 18.9444 32.9444 17 30.3333C16.0556 29.1667 15.8333 28 15.8333 25C15.8333 20.7222 16.6667 19.0556 20.0556 16.7778C21.6667 15.6667 22.5 15.5 25.3889 15.6667C27.7778 15.8333 29.3333 16.2222 30.3889 17Z" fill="#FDEBD3"/>
<path d="M20.2224 20.2222C18.5557 21.8889 18.3335 22.4445 18.3335 25C18.3335 27.5556 18.5557 28.1111 20.2224 29.7778C21.8891 31.4445 22.4446 31.6667 25.0002 31.6667C27.5557 31.6667 28.1113 31.4445 29.7779 29.7778C31.4446 28.1111 31.6668 27.5556 31.6668 25C31.6668 22.4445 31.4446 21.8889 29.7779 20.2222C28.1113 18.5556 27.5557 18.3334 25.0002 18.3334C22.4446 18.3334 21.8891 18.5556 20.2224 20.2222Z" fill="#FDEBD3"/>
</svg>
