<svg width="350" height="86" viewBox="0 0 350 86" fill="none" xmlns="http://www.w3.org/2000/svg">
<path d="M277.364 83.5247L290.286 83.6125L290.497 85.4465H264.442V83.4377L277.364 83.5247ZM2.96387 58.4358C-7.85104 34.0839 12.4862 8.0255 38.8535 12.4504C64.4897 16.7524 74.861 49.3817 56.4814 67.9084C40.1857 84.3339 12.2716 79.3933 2.96387 58.4358ZM184.578 30.0911C186.074 27.1207 186.264 27.196 185.207 30.342C178.969 48.9167 189.7 70.4555 207.926 75.9407C212.65 77.3625 212.845 77.4666 210.421 77.2678C187.901 75.4205 174.276 50.5477 184.578 30.0911ZM76.3691 23.4211C78.4923 15.5368 88.7988 11.0126 99.5439 13.2483C107.993 15.007 116.088 23.5617 113.493 27.9905C112.549 29.602 111.716 29.4098 111.716 27.5803C111.716 15.1995 85.7755 10.6687 79.9033 22.0237C75.6427 30.2626 81.417 37.1979 97.043 42.6086C109.529 46.9323 114.595 51.7792 114.979 59.7737C115.981 80.5793 83.3431 83.9353 74.0078 63.9866L72.9717 61.7717L73.9199 60.2717C75.0904 58.4187 75.2553 58.4107 75.6875 60.1868C80.3626 79.3951 111.881 79.9029 111.882 60.7698C111.882 53.082 107.502 48.9501 94.542 44.4133C79.452 39.1307 73.8744 32.6869 76.3691 23.4211ZM257.865 15.8362C258.078 17.8518 258.122 17.9894 262.339 29.7581C266.385 41.0496 277.069 70.778 277.318 71.4407C277.546 72.0442 276.766 74.1251 287.068 45.4309C295.227 22.7069 296.876 17.8479 297.283 15.3352L297.486 14.0852H299.305C300.305 14.0852 301.124 14.132 301.124 14.1887C301.123 14.2491 300.734 15.261 300.261 16.4397C299.785 17.6234 294.696 31.569 288.951 47.4319L278.504 76.2766L277.387 76.3752L276.269 76.4739L274.545 71.7063C270.619 60.8514 265.599 46.9167 261.775 36.26C256.738 22.2209 254.501 16.1907 253.892 15.0022L253.421 14.0852H257.68L257.865 15.8362ZM337.128 42.0129C342.878 57.373 348.159 71.2907 348.862 72.9417C350.46 76.69 350.511 76.4426 348.143 76.4426C346.227 76.4426 346.142 76.4073 346.142 75.6038C346.142 74.5997 344.375 69.076 342.356 63.7717L340.897 59.9368L325.383 59.8499L309.867 59.7629L308.302 64.0178C305.841 70.7021 304.792 74.0754 304.792 75.3059V76.4426H302.791C301.692 76.4426 300.792 76.3698 300.79 76.2805C300.79 76.1908 301.335 74.8025 302.001 73.1956C302.667 71.5885 304.225 67.5729 305.464 64.2717C312.797 44.7297 323.592 16.1034 323.98 15.1692C324.363 14.2512 324.604 14.0852 325.553 14.0852H326.673L337.128 42.0129ZM127.785 13.8137C128.776 13.9112 129.15 14.396 133.284 20.9211C135.724 24.7725 138.529 29.1989 139.517 30.7581C143.966 37.7794 155.045 55.31 159.584 62.511C162.326 66.862 164.692 70.4259 164.841 70.4309C164.99 70.4092 165.064 57.7441 165.007 42.2629L164.903 14.0842L166.154 14.0852H167.404V76.4426H166.29C165.21 76.4426 165.065 76.2685 161.664 70.8577C148.144 49.3489 129.715 20.3038 129.344 19.9211C129.133 19.7051 129.055 29.5807 129.121 48.0149L129.223 76.4436L127.973 76.4426H126.722V13.7092L127.785 13.8137ZM61.4248 55.1028C69.3202 32.3673 49.4314 9.82566 26.1221 15.0911C-1.66179 21.3675 -5.74038 60.1456 20.0898 72.4446C36.0904 80.0632 55.599 71.8785 61.4248 55.1028ZM206.618 3.88794C204.125 0.622461 206.296 -1.561 209.103 1.38892C211.073 3.4604 213.089 8.35741 213.089 11.0735V11.9241L217.007 11.9739C249.1 12.3857 260.828 53.744 233.808 71.2229C230.681 73.246 230.627 73.1937 233.109 70.5403C251.881 50.4734 241.279 16.9034 215.34 14.2737L213.423 14.0793L213.416 16.4993C213.41 18.7061 213.035 22.2418 212.57 24.4661C212.27 25.9022 215.764 25.0182 218.591 22.9426C220.318 21.6748 220.675 21.5167 220.102 22.2747C217.203 26.1032 213.629 27.3556 208.754 26.2502C204.548 25.2962 202.414 25.2459 200.578 26.0579C198.454 26.9977 198.293 26.6977 200.255 25.4534C202.705 23.8998 203.958 23.8364 210.14 24.9475L211.357 25.1663L211.582 22.7102C211.757 20.7884 211.314 14.4697 210.986 14.2209C210.876 14.1381 203.148 15.0196 201.997 15.2463C201.18 15.4074 201.039 15.3722 201.418 15.1018C201.959 14.716 207.55 12.9375 209.357 12.5764C210.984 12.2511 209.564 7.746 206.618 3.88794ZM325.492 18.679C325.377 18.5459 324.659 20.1212 323.896 22.1799C323.132 24.2387 319.946 32.7975 316.817 41.1995C313.689 49.5985 311.13 56.6866 311.128 56.9553C311.128 57.3655 313.213 57.4358 325.467 57.4358C333.35 57.4358 339.801 57.3162 339.806 57.1702C339.806 57.0241 337.202 49.933 334.02 41.4133C330.838 32.8941 327.664 24.3487 326.968 22.4221C326.272 20.4969 325.608 18.8129 325.492 18.679Z" fill="#FDEBD3"/>
</svg>
