<svg width="150" height="150" viewBox="0 0 150 150" fill="none" xmlns="http://www.w3.org/2000/svg">
<path d="M150 75C150 116.421 116.421 150 75 150C33.5786 150 0 116.421 0 75C0 33.5786 33.5786 0 75 0C116.421 0 150 33.5786 150 75Z" fill="#5A6D4D"/>
<path d="M91.4291 63.0969L90.3684 54.3994L99.7023 48.4596L101.187 56.5207L91.4291 63.0969Z" fill="#FDEBD3" stroke="#FDEBD3"/>
<path d="M59.8212 63.0969L60.8818 54.3994L51.5479 48.4596L50.063 56.5207L59.8212 63.0969Z" fill="#FDEBD3" stroke="#FDEBD3"/>
<path d="M136.19 84.0983C122.443 117.022 94.2575 114.504 81.883 109.13C107.976 102.342 109.036 95.5536 119.643 78.5828C129.401 79.2192 132.583 82.1891 136.19 84.0983Z" fill="#FDEBD3" stroke="#FDEBD3"/>
<path d="M14 84.0983C27.7463 117.022 55.932 114.504 68.3065 109.13C42.2139 102.342 41.1532 95.5536 30.5465 78.5828C20.7883 79.2192 17.6063 82.1891 14 84.0983Z" fill="#FDEBD3" stroke="#FDEBD3"/>
<path d="M77.2162 105.948C76.9334 90.1088 85.1925 57.836 120.492 55.4601C119.219 70.5217 120.704 97.8871 77.2162 105.948Z" fill="#FDEBD3" stroke="#FDEBD3"/>
<path d="M62.7911 65.4305C72.0789 78.558 74.1798 87.2969 75.5238 91.7309C80.3244 79.4619 83.7996 70.7105 88.1355 65.4305C90.314 50.1316 81.0636 40.744 75.8571 34.0001C65.6684 44.7295 62.0165 55.7372 62.7911 65.4305Z" fill="#FDEBD3" stroke="#FDEBD3"/>
<path d="M73.8219 106.16C74.1047 90.321 65.8456 58.0482 30.5463 55.6722C31.8191 70.7338 30.3342 98.0993 73.8219 106.16Z" fill="#FDEBD3" stroke="#FDEBD3"/>
</svg>
