<svg width="50" height="50" viewBox="0 0 50 50" fill="none" xmlns="http://www.w3.org/2000/svg">
<path d="M7.33333 7.33333C6.38889 8.27778 6.38889 41.7222 7.33333 42.6667C8.27778 43.6111 41.7222 43.6111 42.6667 42.6667C43.6111 41.7222 43.6111 8.27778 42.6667 7.33333C41.7222 6.38889 8.27778 6.38889 7.33333 7.33333ZM26.6667 22C26.6667 24.2778 26.8889 25 27.5 25C28.3333 25 31.1111 21.3333 31.1111 20.1667C31.1111 19.6667 31.9444 19.4444 33.6111 19.4444C35 19.4444 36.1111 19.6667 36.1111 19.8889C36.1111 20.1667 35.3889 21.4444 34.4444 22.6667C33.5556 23.9444 32.7778 25.4444 32.7778 26C32.7778 26.5556 33.5556 27.7222 34.4444 28.6111C35.3889 29.5 36.1111 30.3889 36.1111 30.6111C36.1111 30.8333 35.1667 31.1111 34.0556 31.2222C32.3889 31.4444 31.6667 31.1667 30.1667 29.8333C28.1667 28.0556 26.6667 28.1667 26.6667 30.0556C26.6667 31.1667 26.4444 31.2222 24.1111 30.9444C22.1111 30.7222 21.1111 30.2222 19.4444 28.6111C17.6111 26.8333 13.8889 20.8889 13.8889 19.7778C13.8889 19.6111 14.7778 19.4444 15.8333 19.4444C17.4444 19.4444 17.8889 19.7222 18.6667 21.2222C19.8889 23.6111 21.1111 25 22.0556 25C23 25 23.0556 20.2222 22.1111 19.6667C21.2222 19.1111 23.6667 18.4444 25.4444 18.7778C26.5556 19 26.6667 19.3333 26.6667 22Z" fill="#FDEBD3"/>
</svg>
