<svg width="50" height="50" viewBox="0 0 50 50" fill="none" xmlns="http://www.w3.org/2000/svg">
<path d="M17.2224 6.22224C12.9446 7.8889 7.83348 13.0556 6.22236 17.3889C4.5557 21.7778 4.5557 28.2222 6.16681 32.5556L7.33348 35.7222L6.16681 40.1667C5.50014 42.6111 5.11125 44.7222 5.22236 44.8889C5.38903 45 7.61125 44.6111 10.1668 44C14.8335 42.8333 14.8335 42.8333 17.6668 43.8889C21.7224 45.4445 28.3335 45.3889 32.6113 43.7778C37.0557 42.1667 42.1668 37.0556 43.7779 32.6111C45.4446 28.2222 45.4446 21.7778 43.7779 17.3889C42.1668 12.9445 37.0557 7.83335 32.6113 6.22224C28.2779 4.55557 21.5001 4.61113 17.2224 6.22224ZM20.5557 18.2778C21.6113 20.3333 21.6113 20.5556 20.7224 22.0556C19.889 23.5556 19.889 23.7778 20.889 25.2222C22.0557 27.1111 25.889 30 27.1113 30C27.6113 30 28.5557 29.4445 29.2779 28.7778C30.5001 27.6111 30.5557 27.6111 32.7779 28.6111C35.3335 29.7778 35.5557 30.6111 33.6113 32.5C31.8335 34.3333 29.4446 34.2778 25.2779 32.2778C18.3335 29.0556 13.7224 21.2222 16.4446 17.3333C17.7779 15.4445 19.2779 15.7778 20.5557 18.2778Z" fill="#FDEBD3"/>
</svg>
